<mxfile host="app.diagrams.net" modified="2023-03-22T09:57:49.433Z" agent="5.0 (Windows NT 10.0; Win64; x64) AppleWebKit/537.36 (KHTML, like Gecko) Chrome/111.0.0.0 Safari/537.36" etag="4DdbFKvYmrGcJ4AZvgDW" version="21.0.10" type="github">
  <diagram id="prtHgNgQTEPvFCAcTncT" name="Page-1">
    <mxGraphModel dx="1105" dy="582" grid="1" gridSize="10" guides="1" tooltips="1" connect="1" arrows="1" fold="1" page="1" pageScale="1" pageWidth="827" pageHeight="1169" math="0" shadow="0">
      <root>
        <mxCell id="0" />
        <mxCell id="1" parent="0" />
        <mxCell id="EDjKDU2_smodigg_aC31-13" style="edgeStyle=orthogonalEdgeStyle;rounded=0;orthogonalLoop=1;jettySize=auto;html=1;exitX=0.5;exitY=1;exitDx=0;exitDy=0;entryX=0.5;entryY=0;entryDx=0;entryDy=0;" edge="1" parent="1" source="EDjKDU2_smodigg_aC31-1" target="EDjKDU2_smodigg_aC31-3">
          <mxGeometry relative="1" as="geometry" />
        </mxCell>
        <mxCell id="EDjKDU2_smodigg_aC31-1" value="Node head" style="rounded=0;whiteSpace=wrap;html=1;" vertex="1" parent="1">
          <mxGeometry x="320" y="40" width="100" height="40" as="geometry" />
        </mxCell>
        <mxCell id="EDjKDU2_smodigg_aC31-14" style="edgeStyle=orthogonalEdgeStyle;rounded=0;orthogonalLoop=1;jettySize=auto;html=1;exitX=0.5;exitY=1;exitDx=0;exitDy=0;entryX=0.5;entryY=0;entryDx=0;entryDy=0;" edge="1" parent="1" source="EDjKDU2_smodigg_aC31-3" target="EDjKDU2_smodigg_aC31-4">
          <mxGeometry relative="1" as="geometry" />
        </mxCell>
        <mxCell id="EDjKDU2_smodigg_aC31-3" value="q = NULL" style="rounded=0;whiteSpace=wrap;html=1;" vertex="1" parent="1">
          <mxGeometry x="320" y="100" width="100" height="40" as="geometry" />
        </mxCell>
        <mxCell id="EDjKDU2_smodigg_aC31-15" style="edgeStyle=orthogonalEdgeStyle;rounded=0;orthogonalLoop=1;jettySize=auto;html=1;exitX=0.5;exitY=1;exitDx=0;exitDy=0;entryX=0.5;entryY=0;entryDx=0;entryDy=0;" edge="1" parent="1" source="EDjKDU2_smodigg_aC31-4">
          <mxGeometry relative="1" as="geometry">
            <mxPoint x="370" y="230" as="targetPoint" />
          </mxGeometry>
        </mxCell>
        <mxCell id="EDjKDU2_smodigg_aC31-4" value="check = false&lt;br&gt;p = head" style="rounded=0;whiteSpace=wrap;html=1;" vertex="1" parent="1">
          <mxGeometry x="320" y="160" width="100" height="40" as="geometry" />
        </mxCell>
        <mxCell id="EDjKDU2_smodigg_aC31-16" style="edgeStyle=orthogonalEdgeStyle;rounded=0;orthogonalLoop=1;jettySize=auto;html=1;exitX=0.5;exitY=1;exitDx=0;exitDy=0;" edge="1" parent="1">
          <mxGeometry relative="1" as="geometry">
            <mxPoint x="370" y="270" as="sourcePoint" />
            <mxPoint x="370" y="300" as="targetPoint" />
          </mxGeometry>
        </mxCell>
        <mxCell id="EDjKDU2_smodigg_aC31-17" style="edgeStyle=orthogonalEdgeStyle;rounded=0;orthogonalLoop=1;jettySize=auto;html=1;exitX=0.5;exitY=1;exitDx=0;exitDy=0;entryX=0.5;entryY=0;entryDx=0;entryDy=0;" edge="1" parent="1" target="EDjKDU2_smodigg_aC31-8">
          <mxGeometry relative="1" as="geometry">
            <mxPoint x="370" y="340" as="sourcePoint" />
          </mxGeometry>
        </mxCell>
        <mxCell id="EDjKDU2_smodigg_aC31-18" style="edgeStyle=orthogonalEdgeStyle;rounded=0;orthogonalLoop=1;jettySize=auto;html=1;exitX=0.5;exitY=1;exitDx=0;exitDy=0;" edge="1" parent="1" source="EDjKDU2_smodigg_aC31-8" target="EDjKDU2_smodigg_aC31-9">
          <mxGeometry relative="1" as="geometry" />
        </mxCell>
        <mxCell id="EDjKDU2_smodigg_aC31-8" value="swap(p,p.next.data)&lt;br&gt;check = true" style="rounded=0;whiteSpace=wrap;html=1;" vertex="1" parent="1">
          <mxGeometry x="320" y="370" width="110" height="40" as="geometry" />
        </mxCell>
        <mxCell id="EDjKDU2_smodigg_aC31-26" style="edgeStyle=orthogonalEdgeStyle;rounded=0;orthogonalLoop=1;jettySize=auto;html=1;exitX=1;exitY=0.25;exitDx=0;exitDy=0;entryX=1;entryY=0.5;entryDx=0;entryDy=0;" edge="1" parent="1" source="EDjKDU2_smodigg_aC31-9" target="EDjKDU2_smodigg_aC31-28">
          <mxGeometry relative="1" as="geometry">
            <mxPoint x="420" y="250" as="targetPoint" />
          </mxGeometry>
        </mxCell>
        <mxCell id="EDjKDU2_smodigg_aC31-9" value="p = p.next" style="rounded=0;whiteSpace=wrap;html=1;" vertex="1" parent="1">
          <mxGeometry x="325" y="440" width="100" height="40" as="geometry" />
        </mxCell>
        <mxCell id="EDjKDU2_smodigg_aC31-22" style="edgeStyle=orthogonalEdgeStyle;rounded=0;orthogonalLoop=1;jettySize=auto;html=1;exitX=1;exitY=0.5;exitDx=0;exitDy=0;entryX=0;entryY=0.5;entryDx=0;entryDy=0;" edge="1" parent="1" source="EDjKDU2_smodigg_aC31-10" target="EDjKDU2_smodigg_aC31-12">
          <mxGeometry relative="1" as="geometry" />
        </mxCell>
        <mxCell id="EDjKDU2_smodigg_aC31-10" value="q = p" style="rounded=0;whiteSpace=wrap;html=1;" vertex="1" parent="1">
          <mxGeometry x="325" y="500" width="95" height="40" as="geometry" />
        </mxCell>
        <mxCell id="EDjKDU2_smodigg_aC31-11" value="sorted array" style="rounded=0;whiteSpace=wrap;html=1;" vertex="1" parent="1">
          <mxGeometry x="325" y="565" width="100" height="40" as="geometry" />
        </mxCell>
        <mxCell id="EDjKDU2_smodigg_aC31-23" style="edgeStyle=orthogonalEdgeStyle;rounded=0;orthogonalLoop=1;jettySize=auto;html=1;exitX=0.5;exitY=1;exitDx=0;exitDy=0;entryX=0.5;entryY=0;entryDx=0;entryDy=0;" edge="1" parent="1" source="EDjKDU2_smodigg_aC31-12" target="EDjKDU2_smodigg_aC31-11">
          <mxGeometry relative="1" as="geometry">
            <Array as="points">
              <mxPoint x="500" y="560" />
              <mxPoint x="375" y="560" />
            </Array>
          </mxGeometry>
        </mxCell>
        <mxCell id="EDjKDU2_smodigg_aC31-24" style="edgeStyle=orthogonalEdgeStyle;rounded=0;orthogonalLoop=1;jettySize=auto;html=1;exitX=0.5;exitY=0;exitDx=0;exitDy=0;entryX=1;entryY=0.5;entryDx=0;entryDy=0;" edge="1" parent="1" source="EDjKDU2_smodigg_aC31-12" target="EDjKDU2_smodigg_aC31-3">
          <mxGeometry relative="1" as="geometry" />
        </mxCell>
        <mxCell id="EDjKDU2_smodigg_aC31-12" value="check == true" style="rounded=0;whiteSpace=wrap;html=1;" vertex="1" parent="1">
          <mxGeometry x="450" y="500" width="100" height="40" as="geometry" />
        </mxCell>
        <mxCell id="EDjKDU2_smodigg_aC31-30" style="edgeStyle=orthogonalEdgeStyle;rounded=0;orthogonalLoop=1;jettySize=auto;html=1;exitX=0;exitY=0.5;exitDx=0;exitDy=0;entryX=0;entryY=0.5;entryDx=0;entryDy=0;" edge="1" parent="1" source="EDjKDU2_smodigg_aC31-28" target="EDjKDU2_smodigg_aC31-10">
          <mxGeometry relative="1" as="geometry">
            <Array as="points">
              <mxPoint x="280" y="255" />
              <mxPoint x="280" y="520" />
            </Array>
          </mxGeometry>
        </mxCell>
        <mxCell id="EDjKDU2_smodigg_aC31-28" value="q!= p.next" style="rhombus;whiteSpace=wrap;html=1;" vertex="1" parent="1">
          <mxGeometry x="326" y="230" width="87.5" height="50" as="geometry" />
        </mxCell>
        <mxCell id="EDjKDU2_smodigg_aC31-32" style="edgeStyle=orthogonalEdgeStyle;rounded=0;orthogonalLoop=1;jettySize=auto;html=1;exitX=1;exitY=0.5;exitDx=0;exitDy=0;entryX=1;entryY=0.5;entryDx=0;entryDy=0;" edge="1" parent="1" source="EDjKDU2_smodigg_aC31-31" target="EDjKDU2_smodigg_aC31-9">
          <mxGeometry relative="1" as="geometry" />
        </mxCell>
        <mxCell id="EDjKDU2_smodigg_aC31-31" value="p.data &amp;gt; p.next.data" style="rhombus;whiteSpace=wrap;html=1;" vertex="1" parent="1">
          <mxGeometry x="300" y="300" width="140" height="50" as="geometry" />
        </mxCell>
        <mxCell id="EDjKDU2_smodigg_aC31-33" value="F" style="text;html=1;align=center;verticalAlign=middle;resizable=0;points=[];autosize=1;strokeColor=none;fillColor=none;" vertex="1" parent="1">
          <mxGeometry x="290" y="230" width="30" height="30" as="geometry" />
        </mxCell>
        <mxCell id="EDjKDU2_smodigg_aC31-34" value="T&lt;br&gt;" style="text;html=1;align=center;verticalAlign=middle;resizable=0;points=[];autosize=1;strokeColor=none;fillColor=none;" vertex="1" parent="1">
          <mxGeometry x="360" y="270" width="30" height="30" as="geometry" />
        </mxCell>
        <mxCell id="EDjKDU2_smodigg_aC31-35" value="T&lt;br&gt;" style="text;html=1;align=center;verticalAlign=middle;resizable=0;points=[];autosize=1;strokeColor=none;fillColor=none;" vertex="1" parent="1">
          <mxGeometry x="375" y="340" width="30" height="30" as="geometry" />
        </mxCell>
        <mxCell id="EDjKDU2_smodigg_aC31-36" value="F" style="text;html=1;align=center;verticalAlign=middle;resizable=0;points=[];autosize=1;strokeColor=none;fillColor=none;" vertex="1" parent="1">
          <mxGeometry x="500" y="540" width="30" height="30" as="geometry" />
        </mxCell>
        <mxCell id="EDjKDU2_smodigg_aC31-37" value="T&lt;br&gt;" style="text;html=1;align=center;verticalAlign=middle;resizable=0;points=[];autosize=1;strokeColor=none;fillColor=none;" vertex="1" parent="1">
          <mxGeometry x="500" y="460" width="30" height="30" as="geometry" />
        </mxCell>
      </root>
    </mxGraphModel>
  </diagram>
</mxfile>
